<svg xmlns="http://www.w3.org/2000/svg" viewBox="0 0 64 64">
  <defs>
    <linearGradient id="bg" x1="0%" y1="0%" x2="100%" y2="100%">
      <stop offset="0%" stop-color="#16a34a" />
      <stop offset="100%" stop-color="#84cc16" />
    </linearGradient>
  </defs>
  <rect width="64" height="64" rx="18" fill="url(#bg)" />
  <path
    d="M21 39c0-9 6.5-16 17-18-1 4-2.8 7.4-5.4 10.2-2.5 2.7-5.8 4.8-9.6 6.4 2.5.8 5.2 1.2 8 1.2 6.5 0 11.6-2.1 15-6.3-1 7.7-7 13.5-15 13.5C25.5 46 21 43 21 39Z"
    fill="#f8fafc"
  />
  <path
    d="M39.5 17.5c4.2 1.3 7.1 4.6 7.1 8.9 0 5.5-4.5 10.1-12.4 12.8 2.4-2.3 4.2-4.8 5.4-7.7 1.3-3 1.8-6 1.6-9Z"
    fill="#dcfce7"
  />
</svg>
